<?xml version="1.0" standalone="no"?>
<!DOCTYPE svg PUBLIC "-//W3C//DTD SVG 20010904//EN"
 "http://www.w3.org/TR/2001/REC-SVG-20010904/DTD/svg10.dtd">
<svg version="1.0" xmlns="http://www.w3.org/2000/svg"
 width="512.000000pt" height="512.000000pt" viewBox="0 0 512.000000 512.000000"
 preserveAspectRatio="xMidYMid meet">
<metadata>
Created by potrace 1.14, written by Peter Selinger 2001-2017
</metadata>
<g transform="translate(0.000000,512.000000) scale(0.100000,-0.100000)"
fill="#000000" stroke="none">
<path d="M2295 5029 c-384 -39 -781 -182 -1107 -399 -473 -314 -817 -767 -992
-1305 -26 -82 -71 -262 -80 -325 -3 -19 -11 -69 -18 -110 -20 -121 -16 -504 6
-670 63 -457 279 -926 591 -1280 166 -188 418 -396 620 -510 65 -37 252 -130
262 -130 4 0 21 -7 37 -15 93 -49 398 -133 576 -160 141 -21 466 -27 625 -13
347 33 744 172 1060 371 276 175 547 440 732 717 217 326 360 721 401 1105 14
134 7 492 -11 615 -119 780 -566 1427 -1252 1813 -246 138 -524 232 -840 283
-110 18 -486 26 -610 13z m560 -748 c363 -68 678 -233 927 -487 342 -349 514
-781 503 -1264 -9 -383 -130 -726 -363 -1025 -264 -340 -641 -568 -1067 -646
-181 -33 -464 -33 -632 1 -689 139 -1226 662 -1373 1340 -29 129 -35 202 -34
385 1 212 27 370 94 559 133 377 387 693 725 903 212 132 478 225 715 249 36
3 67 8 69 10 13 12 339 -7 436 -25z m-2146 -1774 c1 -46 3 -95 6 -108 2 -13 6
-46 10 -74 46 -389 267 -823 556 -1091 340 -314 780 -498 1207 -503 l62 -1 0
-264 0 -265 -97 4 c-83 4 -169 11 -233 21 -8 1 -36 5 -61 8 -77 11 -278 63
-389 101 -219 75 -495 227 -695 384 -104 82 -313 294 -392 396 -59 79 -164
235 -191 285 -154 284 -248 556 -282 814 -6 45 -13 93 -16 109 -7 43 -13 250
-8 259 3 4 121 8 263 8 l258 0 2 -83z"/>
</g>
</svg>
